<?xml version="1.0" standalone="no"?>
<!DOCTYPE svg PUBLIC "-//W3C//DTD SVG 20010904//EN"
 "http://www.w3.org/TR/2001/REC-SVG-20010904/DTD/svg10.dtd">
<svg version="1.0" xmlns="http://www.w3.org/2000/svg"
 width="128.000000pt" height="128.000000pt" viewBox="0 0 128.000000 128.000000"
 preserveAspectRatio="xMidYMid meet">
<metadata>
Created by potrace 1.14, written by Peter Selinger 2001-2017
</metadata>
<g transform="translate(0.000000,128.000000) scale(0.100000,-0.100000)"
fill="#000000" stroke="none">
<path d="M322 868 c-18 -6 -46 -26 -62 -45 -24 -27 -30 -43 -30 -79 0 -86 39
-120 163 -143 69 -13 92 -24 113 -56 22 -33 10 -78 -29 -111 -28 -23 -38 -26
-91 -22 -51 4 -63 9 -87 36 -22 25 -29 42 -29 75 0 54 -13 76 -36 62 -24 -15
-24 -205 1 -220 18 -11 38 11 30 33 -6 16 -2 16 42 -10 28 -17 53 -23 98 -23
107 1 165 54 165 150 0 82 -33 113 -145 134 -110 22 -135 39 -135 95 0 38 10
55 41 71 45 24 103 19 138 -10 25 -22 30 -34 33 -78 3 -44 6 -52 23 -52 19 0
20 7 20 94 0 69 -4 96 -13 99 -7 2 -16 -5 -19 -16 -5 -21 -5 -21 -32 -1 -32
23 -113 32 -159 17z"/>
<path d="M795 868 c-53 -19 -85 -48 -113 -101 -24 -47 -27 -62 -27 -152 0 -84
4 -107 22 -141 61 -114 202 -148 290 -71 32 28 36 29 31 11 -7 -28 6 -49 26
-41 13 5 16 23 16 95 0 95 5 107 50 114 17 2 25 9 25 22 0 18 -8 20 -115 20
-107 0 -115 -2 -115 -20 0 -15 9 -20 45 -24 l45 -5 3 -48 c3 -43 0 -51 -31
-82 -30 -30 -42 -35 -80 -35 -89 0 -146 70 -155 188 -6 90 11 147 58 194 34
34 43 38 90 38 46 0 56 -4 86 -34 27 -27 34 -42 34 -72 0 -47 12 -69 33 -61
11 4 16 27 19 94 2 48 2 94 0 101 -7 19 -33 14 -39 -8 -5 -20 -5 -20 -38 0
-40 25 -119 34 -160 18z"/>
</g>
</svg>
